<svg width="114" height="27" viewBox="0 0 114 27" fill="none" xmlns="http://www.w3.org/2000/svg">
<path d="M63.0458 7.05682C64.6178 7.05682 65.8962 7.57765 66.881 8.61932C67.8659 9.66098 68.3583 11.3939 68.3583 13.8182V21.858H64.3526V13.6761C64.3526 11.4602 63.5098 10.3523 61.8242 10.3523C60.953 10.3523 60.2522 10.6648 59.7219 11.2898C59.1916 11.8958 58.9265 12.7481 58.9265 13.8466V21.858H54.9208V13.6761C54.9208 11.4602 54.0685 10.3523 52.364 10.3523C51.4928 10.3523 50.792 10.6742 50.2617 11.3182C49.7503 11.9432 49.4946 12.7955 49.4946 13.875V21.858H45.489V14.5426V11.2H43.2V7.5L48.9833 7.22727L49.3526 9.04545C49.845 8.42045 50.4321 7.9375 51.114 7.59659C51.7958 7.25568 52.6481 7.07576 53.6708 7.05682C55.7541 7.05682 57.203 7.88068 58.0174 9.52841C58.5477 8.73295 59.239 8.12689 60.0912 7.71023C60.9624 7.27462 61.9473 7.05682 63.0458 7.05682Z" fill="#2e2f45"/>
<path d="M77.1524 22C75.6184 22 74.2642 21.697 73.0899 21.0909C71.9346 20.4659 71.035 19.5852 70.3911 18.4489C69.7661 17.3125 69.4536 16.0057 69.4536 14.5284C69.4536 13.0511 69.7661 11.7443 70.3911 10.608C71.035 9.47159 71.9346 8.60038 73.0899 7.99432C74.2642 7.36932 75.6184 7.05682 77.1524 7.05682C78.6865 7.05682 80.0312 7.36932 81.1865 7.99432C82.3608 8.60038 83.2604 9.47159 83.8854 10.608C84.5293 11.7443 84.8513 13.0511 84.8513 14.5284C84.8513 16.0246 84.5293 17.3409 83.8854 18.4773C83.2604 19.5947 82.3608 20.4659 81.1865 21.0909C80.0312 21.697 78.6865 22 77.1524 22ZM77.1524 18.733C78.2699 18.733 79.1506 18.3447 79.7945 17.5682C80.4574 16.7917 80.7888 15.7784 80.7888 14.5284C80.7888 13.2784 80.4574 12.2652 79.7945 11.4886C79.1506 10.7121 78.2699 10.3239 77.1524 10.3239C76.054 10.3239 75.1733 10.7121 74.5104 11.4886C73.8665 12.2652 73.5445 13.2784 73.5445 14.5284C73.5445 15.7784 73.8665 16.7917 74.5104 17.5682C75.1733 18.3447 76.054 18.733 77.1524 18.733Z" fill="#2e2f45"/>
<path d="M89.3599 16.9716C89.4167 17.6155 89.7292 18.1364 90.2974 18.5341C90.8656 18.9318 91.5948 19.1307 92.4849 19.1307C93.3372 19.1307 94.0095 18.9981 94.502 18.733C94.9944 18.4489 95.2406 18.0511 95.2406 17.5398C95.2406 17.161 95.127 16.8769 94.8997 16.6875C94.6724 16.4981 94.3505 16.3655 93.9338 16.2898C93.5171 16.1951 92.8353 16.0909 91.8883 15.9773C90.6005 15.8068 89.5304 15.589 88.6781 15.3239C87.8258 15.0587 87.144 14.642 86.6327 14.0739C86.1213 13.5057 85.8656 12.7481 85.8656 11.8011C85.8656 10.8542 86.1213 10.0208 86.6327 9.30114C87.163 8.5625 87.9016 7.99432 88.8486 7.59659C89.7955 7.19886 90.8845 7 92.1156 7C94.1042 7.01894 95.7046 7.44507 96.9167 8.27841C98.1478 9.11174 98.8107 10.267 98.9054 11.7443H95.0986C95.0417 11.1951 94.7482 10.75 94.2179 10.4091C93.7065 10.0492 93.0436 9.86932 92.2292 9.86932C91.4717 9.86932 90.8561 10.0114 90.3827 10.2955C89.9281 10.5795 89.7008 10.9583 89.7008 11.4318C89.7008 11.7727 89.8239 12.0284 90.0702 12.1989C90.3164 12.3693 90.6383 12.4924 91.0361 12.5682C91.4338 12.6439 92.0967 12.7292 93.0247 12.8239C94.9944 13.0511 96.5001 13.4773 97.5417 14.1023C98.6023 14.7083 99.1327 15.7595 99.1327 17.2557C99.1327 18.2027 98.8486 19.036 98.2804 19.7557C97.7311 20.4754 96.9546 21.0341 95.9508 21.4318C94.966 21.8106 93.8202 22 92.5133 22C90.4868 22 88.8391 21.5549 87.5702 20.6648C86.3012 19.7557 85.6289 18.5246 85.5531 16.9716L89.3599 16.9716Z" fill="#2e2f45"/>
<path d="M103.572 16.9716C103.629 17.6155 103.942 18.1364 104.51 18.5341C105.078 18.9318 105.807 19.1307 106.697 19.1307C107.55 19.1307 108.222 18.9981 108.714 18.733C109.207 18.4489 109.453 18.0511 109.453 17.5398C109.453 17.161 109.339 16.8769 109.112 16.6875C108.885 16.4981 108.563 16.3655 108.146 16.2898C107.729 16.1951 107.048 16.0909 106.101 15.9773C104.813 15.8068 103.743 15.589 102.89 15.3239C102.038 15.0587 101.356 14.642 100.845 14.0739C100.334 13.5057 100.078 12.7481 100.078 11.8011C100.078 10.8542 100.334 10.0208 100.845 9.30114C101.375 8.5625 102.114 7.99432 103.061 7.59659C104.008 7.19886 105.097 7 106.328 7C108.317 7.01894 109.917 7.44507 111.129 8.27841C112.36 9.11174 113.023 10.267 113.118 11.7443H109.311C109.254 11.1951 108.961 10.75 108.43 10.4091C107.919 10.0492 107.256 9.86932 106.442 9.86932C105.684 9.86932 105.068 10.0114 104.595 10.2955C104.14 10.5795 103.913 10.9583 103.913 11.4318C103.913 11.7727 104.036 12.0284 104.282 12.1989C104.529 12.3693 104.851 12.4924 105.248 12.5682C105.646 12.6439 106.309 12.7292 107.237 12.8239C109.207 13.0511 110.712 13.4773 111.754 14.1023C112.815 14.7083 113.345 15.7595 113.345 17.2557C113.345 18.2027 113.061 19.036 112.493 19.7557C111.943 20.4754 111.167 21.0341 110.163 21.4318C109.178 21.8106 108.032 22 106.726 22C104.699 22 103.051 21.5549 101.782 20.6648C100.514 19.7557 99.8412 18.5246 99.7654 16.9716H103.572Z" fill="#2e2f45"/>
<path d="M20.8001 26.6H19.7001V22.3C17.7001 25 14.6001 26.6 11.2001 26.6H10.1001V22.3C8.1001 25 5.0001 26.6 1.6001 26.6H0.600098V16.1C0.600098 10.2 5.4001 5.5 11.2001 5.5H12.3001V7.3C14.3001 4.6 17.4001 3 20.8001 3H21.9001V4.8C23.9001 2.1 27.0001 0.5 30.4001 0.5H31.5001V16C31.4001 21.8 26.7001 26.6 20.8001 26.6ZM10.2001 7.6C6.0001 8.1 2.7001 11.7 2.7001 16.1V24.4C6.9001 23.9 10.1001 20.3 10.2001 16V7.6ZM19.7001 5.2C15.5001 5.7 12.3001 9.3 12.2001 13.6V24.5C16.4001 24 19.7001 20.4 19.7001 16V5.2ZM29.3001 2.7C25.1001 3.2 21.8001 6.8 21.8001 11.2V24.5C26.0001 24 29.3001 20.4 29.3001 16V2.7Z" fill="#2e2f45"/>
</svg>
