<?xml version="1.0" encoding="utf-8"?>
<!-- Generator: Adobe Illustrator 22.1.0, SVG Export Plug-In . SVG Version: 6.00 Build 0)  -->
<svg version="1.1" id="Layer_2" xmlns="http://www.w3.org/2000/svg" xmlns:xlink="http://www.w3.org/1999/xlink" x="0px" y="0px"
viewBox="0 0 600 142"

	 color="#2e2f45"
	 xml:space="preserve">
<style type="text/css">
	.st0{fill:#2e2f45;}
</style>
<g id="audiense-logo">
	<path id="Combined-Shape" class="st0"
		d="M54.6583333 33.4122254h17.3904762v69.3797696H54.6583333v-7.3322396c-3.397619 3.2310959-6.7988095 5.5587726-10.2119047 6.9806446-3.4119048 1.423065-7.1154762 2.138173-11.1 2.138173-8.952381 0-16.6928572-3.476616-23.2226191-10.4262732C3.59166667 87.2014508.325 78.5593717.325 68.2296379c0-10.7111247 3.16190476-19.4902662 9.48333333-26.3374245C16.1285714 35.0498225 23.8 31.6280312 32.8380952 31.6280312c4.1559524 0 8.0571429.7866187 11.7047619 2.3586642 3.6452381 1.5732375 7.0166667 3.9319017 10.1166667 7.0771847v-7.6516547h-.0011905zM269.783268 130.76259c-.329687-1.758727-1.166738-3.311134-2.51422-4.659269-1.783334-1.785386-3.947619-2.676887-6.496429-2.676887-2.508333 0-4.65.891501-6.435714 2.676887-1.778572 1.786578-2.672619 3.931902-2.672619 6.440739 0 2.551743.894047 4.71852 2.672619 6.503906 1.785714 1.785387 3.928571 2.67808 6.435714 2.67808 2.54881 0 4.713095-.892693 6.496429-2.67808 1.478392-1.47812 2.342356-3.217654 2.595945-5.220628h187.258565c.254935 2.002974 1.12264 3.742508 2.599061 5.220628 1.785714 1.785387 3.928571 2.67808 6.429762 2.67808 2.55 0 4.711905-.892693 6.497619-2.67808 1.785714-1.785386 2.678571-3.952163 2.678571-6.503906 0-2.508837-.892857-4.654161-2.678571-6.440739-1.785714-1.785386-3.947619-2.676887-6.497619-2.676887-2.5 0-4.644048.891501-6.429762 2.676887-1.345686 1.348135-2.185685 2.900542-2.516927 4.659269H269.783268zM36.3797619 47.6976978c-5.372619 0-9.8428571 1.9033789-13.3952381 5.707753-3.5535714 3.8043741-5.3321428 8.6814101-5.3321428 14.6346835 0 5.994988 1.8095238 10.9256571 5.4273809 14.7943909C26.697619 86.703259 31.15 88.6376259 36.4416667 88.6376259c5.4630952 0 9.9880952-1.9021871 13.5821428-5.7065612 3.6-3.8043741 5.4-8.7898681 5.4-14.9552901 0-6.034319-1.8-10.9244652-5.4-14.6668633-3.5952381-3.7400144-8.1416666-5.6112135-13.6440476-5.6112135zm53.1785714-14.2854724h17.5833337v33.4134173c0 6.5039065.446428 11.0233885 1.340476 13.5524868.890476 2.5290983 2.330952 4.4944532 4.309524 5.8960647 1.979762 1.4039952 4.414285 2.1071847 7.313095 2.1071847 2.892857 0 5.346428-.691271 7.370238-2.0726211 2.02381-1.3837338 3.522619-3.4110648 4.504762-6.0903357.723809-1.9975348 1.080952-6.2714964 1.080952-12.8159257v-33.990271h17.390476v29.3980864c0 12.1175035-.957142 20.4067961-2.865476 24.8690695-2.335714 5.4419712-5.775 9.6182014-10.320238 12.5310747-4.541666 2.910489-10.316666 4.369309-17.322619 4.369309-7.60119 0-13.75-1.700765-18.441667-5.102295-4.6928567-3.3991463-7.9916662-8.1403117-9.903571-14.218729-1.3583333-4.2107938-2.0392857-11.8600647-2.0392857-22.9573477V33.4122254zM219.05 6.63024221h17.390476V102.791995H219.05v-7.3322396c-3.397619 3.2310959-6.797619 5.5587726-10.211905 6.9806446-3.410714 1.423065-7.115476 2.138173-11.1 2.138173-8.952381 0-16.691666-3.476616-23.221428-10.4262732-6.532143-6.950849-9.8-15.5929281-9.8-25.9226619 0-10.7111247 3.161904-19.4902662 9.484523-26.3374245 6.320239-6.8423909 13.991667-10.2641822 23.028572-10.2641822 4.157143 0 8.058333.7866187 11.705952 2.3586642 3.645238 1.5732375 7.016667 3.9319017 10.115476 7.0771847V6.63024221H219.05zM200.770238 47.6976978c-5.372619 0-9.841667 1.9033789-13.394048 5.707753-3.553571 3.8043741-5.332142 8.6814101-5.332142 14.6346835 0 5.994988 1.810714 10.9256571 5.428571 14.7943909 3.617857 3.8687338 8.070238 5.8031007 13.360714 5.8031007 5.463096 0 9.988096-1.9021871 13.582143-5.7065612 3.601191-3.8043741 5.401191-8.7898681 5.401191-14.9552901 0-6.034319-1.8-10.9244652-5.401191-14.6668633-3.595238-3.7400144-8.141666-5.6112135-13.645238-5.6112135zm51.338095-14.2854724h17.390477v69.3797696h-17.390477V33.4122254zM354.72381 73.1400456h-55.858334c.805953 4.9330527 2.958334 8.8542278 6.466667 11.7659088 3.498809 2.9092974 7.967857 4.3657338 13.404762 4.3657338 6.497619 0 12.078571-2.2728513 16.75119-6.8209376l14.64881 6.8841055c-3.651191 5.1881079-8.021429 9.0246619-13.120238 11.5108539-5.092857 2.487384-11.147619 3.731671-18.152381 3.731671-10.869048 0-19.722619-3.432518-26.558334-10.2999374-6.840476-6.8662278-10.259523-15.4642086-10.259523-25.7939424 0-10.5859808 3.408333-19.3734652 10.222619-26.3684125 6.820238-6.9913717 15.361904-10.4882494 25.641666-10.4882494 10.913096 0 19.786905 3.4968777 26.621429 10.4882494 6.835714 6.9949473 10.253571 16.230566 10.253571 27.7056643l-.061904 3.3192926zM337.332143 59.430235c-1.147619-3.8687338-3.410714-7.0140168-6.792857-9.4358489-3.380953-2.4242158-7.303572-3.6351319-11.772619-3.6351319-4.847619 0-9.102381 1.3598969-12.760715 4.0796906-2.295238 1.700765-4.420238 4.698259-6.377381 8.9912902h37.703572zM368.8 33.4122254h17.385714v7.1117482c3.942857-3.3276355 7.516667-5.6433933 10.716667-6.9448897 3.203571-1.3003045 6.479762-1.9510527 9.830952-1.9510527 6.866667 0 12.697619 2.4003789 17.490477 7.2047122 4.023809 4.0796907 6.038095 10.118777 6.038095 18.1101079v45.8479517h-17.19881V72.4082518c0-8.2785659-.370238-13.7777458-1.108333-16.4927722-.744048-2.7197937-2.033333-4.7888393-3.880952-6.2107122-1.841667-1.4242566-4.114286-2.1345971-6.829762-2.1345971-3.515477 0-6.533334 1.1787362-9.051191 3.5362086-2.523809 2.3562806-4.272619 5.6135971-5.244047 9.7755252-.509524 2.166777-.764286 6.856693-.764286 14.0780911v27.8331918H368.79881V33.4122254H368.8zm120.696429 9.6944796l-10.763096 10.7754844c-4.37619-4.3359376-8.342857-6.5050983-11.911904-6.5050983-1.951191 0-3.482143.4147626-4.584524 1.2442878-1.107143.8283333-1.658334 1.8592806-1.658334 3.0928417 0 .9355995.352381 1.7973046 1.054762 2.5815396.696429.7890024 2.428572 1.8628561 5.186905 3.222753l6.371429 3.1893813c6.711904 3.3145252 11.315476 6.6946019 13.821428 10.1354628 2.503572 3.4468202 3.755953 7.4836043 3.755953 12.1151199 0 6.1654221-2.257143 11.3094317-6.783334 15.4320288-4.520238 4.124981-10.580952 6.186875-18.179762 6.186875-10.105952 0-18.17619-3.953355-24.204762-11.8600645L452.3 81.0455635c2.039286 2.3813094 4.428571 4.3049497 7.164286 5.7733046 2.742857 1.4647794 5.171428 2.197765 7.294047 2.197765 2.292857 0 4.141667-.5494413 5.539286-1.6566667 1.404762-1.1060335 2.102381-2.3789256 2.102381-3.828211 0-2.6768873-2.52381-5.2906067-7.578571-7.8423501l-5.858334-2.9331343c-11.209524-5.6529281-16.817857-12.7313046-16.817857-21.2351295 0-5.4836859 2.111905-10.1712182 6.340476-14.0578297 4.22381-3.8913789 9.629762-5.8352806 16.209524-5.8352806 4.49881 0 8.734524.985657 12.707143 2.966506 3.970238 1.9772734 7.335714 4.8114844 10.094048 8.5121678zm84.395238 30.0333406h-55.859524c.807143 4.9330527 2.959524 8.8542278 6.467857 11.7659088 3.5 2.9092974 7.970238 4.3657338 13.404762 4.3657338 6.497619 0 12.078571-2.2728513 16.75119-6.8209376l14.64881 6.8841055c-3.651191 5.1881079-8.021429 9.0246619-13.119048 11.5108539-5.094047 2.487384-11.15 3.731671-18.155952 3.731671-10.866667 0-19.720238-3.432518-26.557143-10.2999374-6.839286-6.8662278-10.258333-15.4642086-10.258333-25.7939424 0-10.5859808 3.408333-19.3734652 10.222619-26.3684125 6.820238-6.9913717 15.360714-10.4882494 25.641666-10.4882494 10.911905 0 19.786905 3.4968777 26.621429 10.4882494 6.834524 6.9949473 10.253571 16.230566 10.253571 27.7056643l-.061904 3.3192926zM556.502381 59.430235c-1.151191-3.8687338-3.413095-7.0140168-6.792857-9.4358489-3.380953-2.4242158-7.304762-3.6351319-11.772619-3.6351319-4.84881 0-9.103572 1.3598969-12.761905 4.0796906-2.294048 1.700765-4.422619 4.698259-6.377381 8.9912902h37.704762zm33.863095 26.8475348c2.55 0 4.714286.8915012 6.5 2.6780791 1.783334 1.786578 2.678572 3.9319017 2.678572 6.4395468 0 2.5517434-.895238 4.7197123-2.678572 6.5039063-1.785714 1.786578-3.95 2.679271-6.5 2.679271-2.50119 0-4.642857-.892693-6.428571-2.679271-1.783334-1.784194-2.678572-3.9521629-2.678572-6.5039063 0-2.5076451.895238-4.6529688 2.678572-6.4395468 1.785714-1.7865779 3.928571-2.6780791 6.428571-2.6780791zm0-27.1741007c2.55 0 4.714286.8903093 6.5 2.6768873 1.783334 1.7877697 2.678572 3.9330935 2.678572 6.4383549 0 2.5529352-.895238 4.7220959-2.678572 6.5050983-1.785714 1.7865779-3.95 2.6804628-6.5 2.6804628-2.50119 0-4.642857-.8938849-6.428571-2.6804628-1.783334-1.7830024-2.678572-3.9521631-2.678572-6.5050983 0-2.5064533.895238-4.6505852 2.678572-6.4383549 1.785714-1.786578 3.928571-2.6768873 6.428571-2.6768873zM36.1559524.43740767c2.55 0 4.7130952.89030936 6.497619 2.67688729 1.7845238 1.78657794 2.6726191 3.93070984 2.6726191 6.43954677 0 2.55174337-.8880953 4.72090407-2.6726191 6.50509827-1.7845238 1.7853861-3.947619 2.679271-6.497619 2.679271-2.5059524 0-4.65-.8938849-6.4333334-2.679271-1.7797619-1.7841942-2.675-3.9533549-2.675-6.50509827 0-2.50764509.8952381-4.65296883 2.675-6.43954677C31.5059524 1.32771703 33.65.43740767 36.1559524.43740767z"
		/>
</g>
</svg>
